<svg width="932" height="481" viewBox="0 0 932 481" fill="none" xmlns="http://www.w3.org/2000/svg">
<path d="M180.291 415.73L166.446 305.162C160.993 261.632 191.98 226.34 235.707 226.34H308.821" stroke="black" stroke-width="6" stroke-linecap="round" stroke-linejoin="round"/>
<path d="M354.647 224.397L363.726 211.595L361.337 194.407C360.696 193.191 360.037 191.924 359.362 190.617C309.785 198.004 303.753 218.806 314.887 241.085C232.648 257.166 196.843 383.569 218.235 443.544C224.33 460.59 229.221 477.636 247.328 477.829" stroke="black" stroke-width="6" stroke-linecap="round" stroke-linejoin="round"/>
<path d="M380.505 270.348C380.505 270.24 380.505 270.132 380.505 270.024C383.194 270.285 385.804 270.302 388.324 268.121C394.566 262.706 396.779 261.08 396.779 261.08C396.779 261.08 397.346 261.762 398.35 262.916C399.582 260.643 400.864 258.285 402.175 255.898C375.227 235 354.647 224.397 354.647 224.397L353.126 223.306L343.23 235.392C343.23 235.392 359.334 246.506 380.505 270.348Z" fill="#54BAB9"/>
<path d="M510.765 466.533C510.765 466.533 467.64 350.397 473.127 314.407C476.117 294.775 471.425 272.513 464.945 255.313L452.592 256.114L437.804 291.127C438.769 291.366 439.733 291.565 440.698 291.696C440.698 291.696 440.131 295.372 438.735 303.821C437.799 309.452 439.404 310.071 440.675 313.981C442.315 316.612 443.575 319.566 442.19 324.135C441.737 325.629 440.658 339.704 438.218 358.795C442.758 368.455 447.093 378.649 451.156 389.479C477.303 459.323 474.585 466.943 474.585 466.943L510.765 466.533Z" fill="#54BAB9"/>
<path d="M656.806 476.915C653.702 456.459 631.566 346.664 504.926 250.358C502.089 233.153 494.911 206.072 458.022 193.413" stroke="black" stroke-width="6" stroke-linecap="round" stroke-linejoin="round"/>
<path d="M483.398 308.293C483.398 308.293 482.036 345.386 490.144 372.052" stroke="black" stroke-width="8" stroke-linecap="round" stroke-linejoin="round"/>
<path d="M503.246 249.932C503.649 252.353 503.961 254.58 504.262 256.535C507.746 279.161 500.29 294.184 495.359 304.6C508.597 295.224 517.523 277.394 522.029 263.797C516.587 259.433 509.159 254.342 503.246 249.932Z" fill="black"/>
<path d="M316.197 240.08C306.937 241.972 291.718 246.591 280.75 254.188C288.41 258.37 326.349 281.121 357.353 294.77C357.597 294.628 359.3 291.787 360.151 290.679C342.992 277.053 324.941 257.631 316.197 240.08Z" fill="black"/>
<path d="M341.17 149.581C341.17 149.581 320.113 155.297 328.635 173.304C334.559 185.804 345.806 181.361 352.513 177.571" stroke="black" stroke-width="6" stroke-linecap="round" stroke-linejoin="round"/>
<path d="M346.788 153.002L353.404 150.78C357.768 153.422 372.18 171.355 376.828 180.241C376.828 180.241 397.987 166.496 431.018 157.706C431.018 157.706 449 153.592 456.819 153.922C454.549 135.739 449.908 112.511 441.736 91.743C429.582 60.8722 391.972 72.85 386.514 74.6967C327.858 94.6806 346.731 152.871 346.731 152.871L346.788 153.002Z" stroke="black" stroke-width="6" stroke-linecap="round" stroke-linejoin="round"/>
<path d="M412.803 229.198C405.744 229.198 399.031 228.022 393.749 225.931C376.612 219.152 372.969 214.783 366.818 204.476C360.667 194.168 341.391 154.82 341.391 154.82L353.404 150.78C357.768 153.422 372.18 171.355 376.828 180.242C376.828 180.242 397.987 166.497 431.018 157.706C431.018 157.706 449.176 153.547 456.944 153.922C456.944 153.922 460.655 172.412 458.43 190.537" stroke="black" stroke-width="6" stroke-linecap="round" stroke-linejoin="round"/>
<path d="M342.867 159.962C342.867 159.962 332.017 147.365 324.181 132.313C316.804 118.165 319.863 100.635 332.091 90.4077C342.328 81.8221 352.071 84.0949 352.071 84.0949C352.071 84.0949 334.446 66.1168 348.342 42.86C350.775 38.7907 354.012 35.2616 357.854 32.4887C361.696 29.7159 366.063 27.7578 370.688 26.7342C393.499 21.7283 405.302 39.1496 405.302 39.1496C405.302 39.1496 418.409 -11.5289 474.704 2.4149C480.379 3.82405 487.886 9.8357 491.841 14.1541C515.798 40.3428 470.664 89.777 443.206 99.6752C413.058 110.539 393.669 109.943 381.821 104.863C390.338 107.46 390.65 155.57 342.867 159.962Z" fill="black"/>
<path d="M429.871 144.297L440.505 172.628L429.576 172.571" stroke="black" stroke-width="8" stroke-linecap="round" stroke-linejoin="round"/>
<path d="M424.033 197.18C427 197.18 429.406 194.771 429.406 191.799C429.406 188.827 427 186.418 424.033 186.418C421.065 186.418 418.659 188.827 418.659 191.799C418.659 194.771 421.065 197.18 424.033 197.18Z" fill="black"/>
<path d="M442.451 146.64C444.098 146.227 444.917 143.822 444.279 141.268C443.641 138.713 441.788 136.977 440.141 137.39C438.493 137.802 437.674 140.208 438.312 142.762C438.95 145.316 440.803 147.052 442.451 146.64Z" fill="black"/>
<path d="M413.595 153.33C415.243 152.917 416.061 150.512 415.423 147.958C414.786 145.404 412.933 143.667 411.285 144.08C409.637 144.493 408.818 146.898 409.456 149.452C410.094 152.006 411.947 153.742 413.595 153.33Z" fill="black"/>
<path d="M393.607 130.654C394.629 128.343 396.252 126.35 398.306 124.882C400.36 123.414 402.77 122.524 405.284 122.307" stroke="black" stroke-width="8" stroke-linecap="round" stroke-linejoin="round"/>
<path d="M432.567 114.96C432.567 114.96 440.307 110.738 444.069 116.994" stroke="black" stroke-width="8" stroke-linecap="round" stroke-linejoin="round"/>
<path d="M768.306 319.845H547.688C546.283 319.845 544.919 320.321 543.817 321.194C542.715 322.068 541.94 323.288 541.616 324.657L510.941 454.675H430.972C430.972 454.675 426.541 477.596 452.382 477.596H734.05C735.456 477.596 736.82 477.12 737.922 476.247C739.023 475.373 739.799 474.153 740.122 472.784L774.389 327.532C774.606 326.614 774.612 325.658 774.408 324.737C774.203 323.816 773.793 322.953 773.207 322.213C772.622 321.474 771.877 320.876 771.028 320.466C770.179 320.056 769.249 319.843 768.306 319.845Z" fill="black"/>
<path d="M680.785 117.187H679.049C677.482 117.187 676.212 118.459 676.212 120.028V124.512C676.212 126.081 677.482 127.353 679.049 127.353H680.785C682.352 127.353 683.623 126.081 683.623 124.512V120.028C683.623 118.459 682.352 117.187 680.785 117.187Z" fill="#54BAB9"/>
<path d="M670.526 117.187H625.245C623.678 117.187 622.408 118.459 622.408 120.028V124.512C622.408 126.081 623.678 127.353 625.245 127.353H670.526C672.093 127.353 673.363 126.081 673.363 124.512V120.028C673.363 118.459 672.093 117.187 670.526 117.187Z" fill="black"/>
<path d="M675.139 164.406H625.245C623.678 164.406 622.408 165.677 622.408 167.247V171.73C622.408 173.299 623.678 174.571 625.245 174.571H675.139C676.706 174.571 677.977 173.299 677.977 171.73V167.247C677.977 165.677 676.706 164.406 675.139 164.406Z" fill="black"/>
<path d="M719.808 148.683H639.295C637.728 148.683 636.457 149.955 636.457 151.524V156.007C636.457 157.576 637.728 158.848 639.295 158.848H719.808C721.375 158.848 722.645 157.576 722.645 156.007V151.524C722.645 149.955 721.375 148.683 719.808 148.683Z" fill="#54BAB9"/>
<path d="M771.183 148.683H730.305C728.739 148.683 727.468 149.955 727.468 151.524V156.007C727.468 157.576 728.739 158.848 730.305 158.848H771.183C772.75 158.848 774.021 157.576 774.021 156.007V151.524C774.021 149.955 772.75 148.683 771.183 148.683Z" fill="#54BAB9"/>
<path d="M786.941 132.967H785.205C783.638 132.967 782.368 134.239 782.368 135.808V140.291C782.368 141.86 783.638 143.132 785.205 143.132H786.941C788.508 143.132 789.778 141.86 789.778 140.291V135.808C789.778 134.239 788.508 132.967 786.941 132.967Z" fill="black"/>
<path d="M708.692 132.938H625.245C623.678 132.938 622.408 134.21 622.408 135.779V140.262C622.408 141.831 623.678 143.103 625.245 143.103H708.692C710.259 143.103 711.529 141.831 711.529 140.262V135.779C711.529 134.21 710.259 132.938 708.692 132.938Z" fill="black"/>
<path d="M735.01 117.187H689.728C688.161 117.187 686.891 118.459 686.891 120.028V124.512C686.891 126.081 688.161 127.353 689.728 127.353H735.01C736.576 127.353 737.847 126.081 737.847 124.512V120.028C737.847 118.459 736.576 117.187 735.01 117.187Z" fill="black"/>
<path d="M775.547 132.904H718.355C716.788 132.904 715.518 134.176 715.518 135.745V140.291C715.518 141.86 716.788 143.132 718.355 143.132H775.547C777.114 143.132 778.384 141.86 778.384 140.291V135.745C778.384 134.176 777.114 132.904 775.547 132.904Z" fill="#54BAB9"/>
<path d="M670.526 219.107H625.245C623.678 219.107 622.408 220.379 622.408 221.948V226.431C622.408 228 623.678 229.272 625.245 229.272H670.526C672.093 229.272 673.363 228 673.363 226.431V221.948C673.363 220.379 672.093 219.107 670.526 219.107Z" fill="black"/>
<path d="M675.139 266.325H625.245C623.678 266.325 622.408 267.597 622.408 269.166V273.649C622.408 275.218 623.678 276.49 625.245 276.49H675.139C676.706 276.49 677.977 275.218 677.977 273.649V269.166C677.977 267.597 676.706 266.325 675.139 266.325Z" fill="black"/>
<path d="M719.808 250.608H639.295C637.728 250.608 636.457 251.88 636.457 253.45V257.933C636.457 259.502 637.728 260.774 639.295 260.774H719.808C721.375 260.774 722.645 259.502 722.645 257.933V253.45C722.645 251.88 721.375 250.608 719.808 250.608Z" fill="#54BAB9"/>
<path d="M771.183 250.608H730.305C728.739 250.608 727.468 251.88 727.468 253.45V257.933C727.468 259.502 728.739 260.774 730.305 260.774H771.183C772.75 260.774 774.021 259.502 774.021 257.933V253.45C774.021 251.88 772.75 250.608 771.183 250.608Z" fill="#54BAB9"/>
<path d="M786.941 234.886H785.205C783.638 234.886 782.368 236.158 782.368 237.727V242.21C782.368 243.779 783.638 245.051 785.205 245.051H786.941C788.508 245.051 789.778 243.779 789.778 242.21V237.727C789.778 236.158 788.508 234.886 786.941 234.886Z" fill="black"/>
<path d="M799.901 219.107H798.165C796.598 219.107 795.328 220.379 795.328 221.948V226.431C795.328 228 796.598 229.272 798.165 229.272H799.901C801.468 229.272 802.738 228 802.738 226.431V221.948C802.738 220.379 801.468 219.107 799.901 219.107Z" fill="black"/>
<path d="M708.692 234.858H625.245C623.678 234.858 622.408 236.13 622.408 237.699V242.182C622.408 243.751 623.678 245.023 625.245 245.023H708.692C710.259 245.023 711.529 243.751 711.529 242.182V237.699C711.529 236.13 710.259 234.858 708.692 234.858Z" fill="black"/>
<path d="M735.01 219.107H679.049C677.482 219.107 676.212 220.379 676.212 221.948V226.431C676.212 228 677.482 229.272 679.049 229.272H735.01C736.576 229.272 737.847 228 737.847 226.431V221.948C737.847 220.379 736.576 219.107 735.01 219.107Z" fill="#54BAB9"/>
<path d="M789.892 219.107H744.61C743.044 219.107 741.773 220.379 741.773 221.948V226.431C741.773 228 743.044 229.272 744.61 229.272H789.892C791.459 229.272 792.729 228 792.729 226.431V221.948C792.729 220.379 791.459 219.107 789.892 219.107Z" fill="#54BAB9"/>
<path d="M680.785 203.873H679.049C677.482 203.873 676.212 205.145 676.212 206.714V211.198C676.212 212.767 677.482 214.039 679.049 214.039H680.785C682.352 214.039 683.623 212.767 683.623 211.198V206.714C683.623 205.145 682.352 203.873 680.785 203.873Z" fill="#54BAB9"/>
<path d="M670.526 203.873H625.245C623.678 203.873 622.408 205.145 622.408 206.714V211.198C622.408 212.767 623.678 214.039 625.245 214.039H670.526C672.093 214.039 673.363 212.767 673.363 211.198V206.714C673.363 205.145 672.093 203.873 670.526 203.873Z" fill="black"/>
<path d="M735.01 203.873H689.728C688.161 203.873 686.891 205.145 686.891 206.714V211.198C686.891 212.767 688.161 214.039 689.728 214.039H735.01C736.576 214.039 737.847 212.767 737.847 211.198V206.714C737.847 205.145 736.576 203.873 735.01 203.873Z" fill="black"/>
<path d="M775.547 234.829H718.355C716.788 234.829 715.518 236.101 715.518 237.67V242.216C715.518 243.785 716.788 245.057 718.355 245.057H775.547C777.114 245.057 778.384 243.785 778.384 242.216V237.67C778.384 236.101 777.114 234.829 775.547 234.829Z" fill="#54BAB9"/>
<path d="M842.266 417.866C843.504 417.433 844.794 417.163 846.102 417.065C848.18 416.915 850.267 417.207 852.226 417.92C854.184 418.634 855.969 419.754 857.465 421.207C858.961 422.66 860.133 424.413 860.906 426.352C861.678 428.29 862.032 430.37 861.946 432.455C861.859 434.54 861.334 436.583 860.404 438.451C859.474 440.318 858.16 441.968 856.549 443.291C854.938 444.615 853.066 445.583 851.055 446.132C849.045 446.681 846.941 446.798 844.882 446.476" stroke="black" stroke-width="6" stroke-linecap="round" stroke-linejoin="round"/>
<path d="M806.62 419.798L785.471 393.945" stroke="black" stroke-width="6" stroke-linecap="round" stroke-linejoin="round"/>
<path d="M782.367 411.787V460.545C782.367 465.065 784.161 469.401 787.353 472.598C790.546 475.795 794.876 477.591 799.39 477.591H828.103C832.617 477.591 836.947 475.795 840.14 472.598C843.332 469.401 845.126 465.065 845.126 460.545V411.787H782.367ZM807.754 447.487C807.929 447.588 808.074 447.734 808.174 447.91C808.274 448.086 808.325 448.285 808.322 448.487C808.322 448.788 808.202 449.078 807.989 449.291C807.777 449.504 807.488 449.624 807.187 449.624C806.989 449.627 806.793 449.578 806.62 449.481L795.271 442.663C795.076 442.571 794.911 442.426 794.796 442.244C794.68 442.062 794.619 441.85 794.619 441.635C794.619 441.419 794.68 441.208 794.796 441.025C794.911 440.843 795.076 440.698 795.271 440.606L806.62 433.788C806.793 433.691 806.989 433.642 807.187 433.645C807.488 433.645 807.777 433.765 807.989 433.978C808.202 434.191 808.322 434.481 808.322 434.782C808.325 434.984 808.274 435.183 808.174 435.359C808.074 435.535 807.929 435.681 807.754 435.782L797.989 441.646L807.754 447.487ZM821.94 430.679L812.805 453.55C812.747 453.666 812.67 453.771 812.578 453.862C812.472 453.97 812.346 454.056 812.206 454.115C812.067 454.173 811.917 454.203 811.766 454.203C811.465 454.203 811.177 454.084 810.964 453.87C810.751 453.657 810.631 453.368 810.631 453.067C810.63 452.9 810.665 452.735 810.734 452.584L819.869 429.714C819.931 429.59 820.013 429.479 820.113 429.384C820.216 429.276 820.341 429.192 820.479 429.135C820.616 429.078 820.764 429.051 820.913 429.054C821.214 429.054 821.503 429.174 821.716 429.387C821.929 429.6 822.048 429.889 822.048 430.191C822.05 430.367 822.013 430.542 821.94 430.702V430.679ZM837.403 442.635L826.054 449.453C825.881 449.549 825.685 449.598 825.487 449.595C825.186 449.595 824.897 449.475 824.684 449.262C824.472 449.049 824.352 448.76 824.352 448.459C824.349 448.257 824.4 448.057 824.5 447.881C824.6 447.706 824.745 447.56 824.919 447.459L834.696 441.629L824.931 435.765C824.756 435.664 824.611 435.518 824.511 435.342C824.412 435.166 824.36 434.967 824.363 434.765C824.363 434.615 824.393 434.466 824.45 434.328C824.508 434.189 824.592 434.064 824.698 433.958C824.804 433.851 824.931 433.766 825.07 433.709C825.209 433.651 825.359 433.622 825.51 433.623C825.708 433.62 825.903 433.669 826.077 433.765L837.426 440.583C837.621 440.675 837.785 440.821 837.901 441.003C838.016 441.185 838.078 441.396 838.078 441.612C838.078 441.828 838.016 442.039 837.901 442.221C837.785 442.403 837.621 442.548 837.426 442.64L837.403 442.635Z" fill="black"/>
<path d="M139.135 446.612C137.198 446.755 135.251 446.514 133.406 445.904C131.562 445.293 129.855 444.325 128.385 443.054C126.914 441.784 125.707 440.235 124.834 438.497C123.961 436.76 123.438 434.867 123.295 432.927C123.152 430.987 123.393 429.037 124.002 427.19C124.612 425.343 125.579 423.635 126.848 422.162C128.117 420.689 129.663 419.481 131.399 418.606C133.134 417.732 135.024 417.208 136.962 417.065C137.856 416.998 138.754 417.013 139.646 417.111" stroke="black" stroke-width="6" stroke-linecap="round" stroke-linejoin="round"/>
<path d="M137.211 411.787V460.545C137.211 465.065 139.005 469.401 142.197 472.598C145.39 475.795 149.72 477.591 154.234 477.591H182.952C187.467 477.591 191.797 475.795 194.989 472.598C198.182 469.401 199.975 465.065 199.975 460.545V411.787H137.211ZM162.604 447.487C162.779 447.588 162.924 447.734 163.024 447.91C163.123 448.086 163.174 448.285 163.172 448.487C163.172 448.788 163.052 449.078 162.839 449.291C162.626 449.504 162.338 449.624 162.037 449.624C161.838 449.627 161.643 449.578 161.469 449.481L150.121 442.663C149.926 442.571 149.761 442.426 149.645 442.244C149.53 442.062 149.468 441.85 149.468 441.635C149.468 441.419 149.53 441.208 149.645 441.025C149.761 440.843 149.926 440.698 150.121 440.606L161.469 433.788C161.643 433.691 161.838 433.642 162.037 433.645C162.338 433.645 162.626 433.765 162.839 433.978C163.052 434.191 163.172 434.481 163.172 434.782C163.174 434.984 163.123 435.183 163.024 435.359C162.924 435.535 162.779 435.681 162.604 435.782L152.839 441.646L162.604 447.487ZM186.539 442.657L175.19 449.476C175.016 449.572 174.821 449.621 174.622 449.618C174.472 449.621 174.323 449.593 174.184 449.535C174.046 449.477 173.92 449.391 173.817 449.283C173.709 449.178 173.623 449.053 173.566 448.914C173.508 448.775 173.479 448.626 173.482 448.476C173.479 448.274 173.53 448.074 173.63 447.899C173.73 447.723 173.874 447.577 174.049 447.476L183.815 441.617L174.049 435.754C173.874 435.652 173.73 435.507 173.63 435.331C173.53 435.155 173.479 434.956 173.482 434.754C173.482 434.452 173.601 434.163 173.814 433.95C174.027 433.737 174.316 433.617 174.617 433.617C174.815 433.614 175.011 433.663 175.184 433.759L186.533 440.578C186.728 440.669 186.893 440.815 187.008 440.997C187.124 441.179 187.185 441.39 187.185 441.606C187.185 441.822 187.124 442.033 187.008 442.215C186.893 442.397 186.728 442.543 186.533 442.635L186.539 442.657Z" fill="black"/>
<path d="M242.488 392.138L234.731 378.041" stroke="black" stroke-width="6" stroke-linecap="round" stroke-linejoin="round"/>
<path d="M225.266 393.644H268.26" stroke="black" stroke-width="6" stroke-linecap="round" stroke-linejoin="round"/>
<path d="M262.308 439.555C261.762 439.004 261.042 438.659 260.271 438.58C259.5 438.501 258.725 438.693 258.079 439.122C257.433 439.551 256.956 440.192 256.729 440.934C256.502 441.676 256.54 442.474 256.835 443.192C257.13 443.91 257.665 444.503 258.349 444.87C259.032 445.236 259.821 445.354 260.582 445.203C261.342 445.052 262.027 444.642 262.518 444.042C263.01 443.442 263.279 442.689 263.278 441.913C263.285 441.474 263.202 441.039 263.035 440.634C262.868 440.229 262.621 439.861 262.308 439.555Z" fill="black"/>
<path d="M259.947 434.577C260.719 434.583 261.469 434.32 262.068 433.833C262.668 433.347 263.08 432.667 263.234 431.91C263.389 431.153 263.276 430.366 262.916 429.683C262.555 429 261.969 428.463 261.257 428.165C260.545 427.867 259.752 427.825 259.013 428.048C258.274 428.27 257.635 428.742 257.205 429.384C256.775 430.025 256.581 430.796 256.656 431.565C256.731 432.334 257.07 433.054 257.615 433.6C257.918 433.913 258.28 434.161 258.681 434.329C259.082 434.497 259.513 434.581 259.947 434.577Z" fill="black"/>
<path d="M262.308 454.948C262.858 454.401 263.202 453.681 263.281 452.909C263.36 452.136 263.17 451.361 262.741 450.714C262.313 450.067 261.674 449.589 260.933 449.362C260.192 449.134 259.395 449.171 258.678 449.466C257.961 449.761 257.369 450.296 257.002 450.98C256.635 451.663 256.516 452.453 256.666 453.215C256.816 453.976 257.225 454.662 257.823 455.155C258.422 455.648 259.172 455.918 259.947 455.919C260.386 455.927 260.822 455.844 261.228 455.677C261.634 455.51 262.001 455.262 262.308 454.948Z" fill="black"/>
<path d="M272.488 403.928L264.947 394.104H228.58L221.038 403.928C220.316 404.834 219.916 405.956 219.904 407.116V466.925C219.933 467.883 220.207 468.817 220.699 469.637C221.192 470.458 221.887 471.139 222.718 471.613C225.05 473.068 228.024 475.318 228.234 477.471H265.293C265.497 475.318 268.47 473.068 270.803 471.613C271.632 471.135 272.325 470.452 272.814 469.63C273.304 468.807 273.575 467.872 273.6 466.914V407.116C273.592 405.959 273.2 404.838 272.488 403.928ZM256.702 415.4L260.674 408.764C260.728 408.658 260.809 408.569 260.909 408.504C261.008 408.439 261.123 408.402 261.241 408.394C261.365 408.397 261.486 408.432 261.592 408.497C261.698 408.562 261.784 408.654 261.843 408.764L265.815 415.4C265.873 415.502 265.902 415.618 265.9 415.736C265.901 415.822 265.885 415.908 265.852 415.989C265.819 416.069 265.769 416.141 265.707 416.201C265.646 416.265 265.573 416.315 265.492 416.349C265.411 416.384 265.324 416.401 265.236 416.4C265.12 416.397 265.007 416.364 264.908 416.304C264.808 416.245 264.726 416.16 264.669 416.059L261.264 410.377L257.859 416.059C257.802 416.16 257.719 416.244 257.62 416.304C257.52 416.363 257.408 416.397 257.292 416.4C257.204 416.401 257.117 416.384 257.036 416.349C256.955 416.315 256.882 416.265 256.821 416.201C256.758 416.142 256.707 416.069 256.673 415.989C256.639 415.909 256.622 415.823 256.622 415.736C256.618 415.619 256.646 415.503 256.702 415.4ZM256.963 417.9C257.076 417.816 257.214 417.772 257.354 417.775C257.442 417.775 257.529 417.792 257.61 417.826C257.691 417.86 257.764 417.911 257.825 417.974C257.888 418.035 257.938 418.109 257.971 418.19C258.004 418.271 258.02 418.358 258.018 418.446C258.022 418.527 258.008 418.608 257.978 418.684C257.947 418.759 257.901 418.827 257.842 418.883L257.593 419.128C257.278 419.433 257.029 419.8 256.861 420.206C256.694 420.611 256.61 421.047 256.617 421.486C256.598 421.895 256.666 422.303 256.815 422.684C256.965 423.065 257.193 423.41 257.485 423.696C257.645 423.827 257.846 423.898 258.052 423.895C258.173 423.893 258.29 423.852 258.386 423.778C258.482 423.704 258.552 423.602 258.586 423.486L259.942 419.383C260.064 418.993 260.267 418.633 260.538 418.327C260.72 418.139 260.939 417.992 261.182 417.894C261.424 417.796 261.684 417.75 261.945 417.758C262.214 417.757 262.481 417.811 262.728 417.917C262.976 418.022 263.2 418.177 263.386 418.372C263.794 418.783 264.113 419.273 264.323 419.813C264.533 420.353 264.629 420.93 264.606 421.509C264.609 422.193 264.461 422.87 264.172 423.49C263.882 424.11 263.459 424.658 262.932 425.094C262.878 425.14 262.816 425.174 262.749 425.196C262.682 425.217 262.611 425.225 262.541 425.219C262.453 425.22 262.367 425.203 262.286 425.17C262.205 425.137 262.131 425.088 262.07 425.026C262.008 424.964 261.959 424.89 261.926 424.809C261.893 424.728 261.876 424.642 261.877 424.554C261.872 424.472 261.886 424.39 261.916 424.313C261.946 424.237 261.993 424.168 262.053 424.111L262.302 423.867C262.616 423.561 262.864 423.194 263.031 422.788C263.198 422.382 263.28 421.947 263.273 421.509C263.292 421.1 263.226 420.692 263.077 420.311C262.929 419.93 262.701 419.585 262.41 419.298C262.25 419.168 262.049 419.098 261.843 419.099C261.722 419.102 261.605 419.143 261.509 419.216C261.413 419.29 261.343 419.392 261.309 419.508L259.947 423.611C259.833 423.999 259.64 424.359 259.38 424.668C259.198 424.855 258.978 425.002 258.736 425.1C258.494 425.198 258.234 425.244 257.973 425.236C257.704 425.237 257.437 425.183 257.189 425.077C256.941 424.972 256.718 424.817 256.532 424.622C256.124 424.212 255.805 423.721 255.595 423.181C255.385 422.642 255.289 422.065 255.312 421.486C255.305 420.803 255.45 420.128 255.735 419.508C256.021 418.888 256.44 418.339 256.963 417.9ZM256.651 427.941C257.414 427.174 258.418 426.696 259.494 426.588C260.569 426.48 261.649 426.749 262.548 427.349C263.447 427.949 264.111 428.843 264.426 429.879C264.741 430.914 264.688 432.026 264.275 433.027C263.862 434.027 263.116 434.853 262.163 435.364C261.211 435.875 260.11 436.039 259.05 435.828C257.99 435.618 257.036 435.046 256.35 434.209C255.664 433.373 255.289 432.324 255.289 431.242C255.278 430.628 255.394 430.018 255.628 429.45C255.862 428.882 256.21 428.369 256.651 427.941ZM255.482 457.061C255.391 456.967 255.33 456.849 255.305 456.72C255.281 456.592 255.295 456.459 255.345 456.338C255.395 456.218 255.479 456.114 255.587 456.041C255.695 455.967 255.822 455.927 255.953 455.925H256.685C255.911 455.166 255.425 454.162 255.309 453.084C255.193 452.006 255.455 450.921 256.05 450.015C256.644 449.109 257.535 448.438 258.569 448.117C259.603 447.796 260.717 447.845 261.719 448.255C262.721 448.665 263.55 449.411 264.064 450.366C264.577 451.32 264.743 452.424 264.534 453.488C264.325 454.551 263.753 455.509 262.916 456.197C262.08 456.886 261.03 457.261 259.947 457.26H255.975C255.884 457.264 255.792 457.249 255.707 457.214C255.622 457.18 255.545 457.128 255.482 457.061ZM265.86 459.59L261.888 466.227C261.83 466.336 261.743 466.428 261.637 466.493C261.532 466.558 261.411 466.593 261.287 466.596C261.168 466.589 261.054 466.551 260.954 466.486C260.855 466.421 260.774 466.332 260.719 466.227L256.747 459.59C256.689 459.488 256.66 459.372 256.662 459.255C256.662 459.167 256.679 459.081 256.713 459.001C256.747 458.921 256.797 458.849 256.861 458.789C256.921 458.724 256.994 458.673 257.075 458.639C257.156 458.604 257.244 458.588 257.332 458.59C257.447 458.594 257.56 458.627 257.659 458.687C257.759 458.746 257.841 458.83 257.899 458.931L261.304 464.613L264.708 458.931C264.766 458.83 264.848 458.746 264.947 458.686C265.047 458.626 265.16 458.593 265.276 458.59C265.451 458.591 265.619 458.662 265.744 458.786C265.868 458.911 265.938 459.079 265.94 459.255C265.944 459.371 265.916 459.487 265.86 459.59ZM268.431 446.39C268.369 446.453 268.296 446.503 268.215 446.536C268.134 446.569 268.047 446.585 267.96 446.584H259.947C258.87 446.582 257.826 446.207 256.994 445.522C256.162 444.837 255.593 443.884 255.383 442.826C255.174 441.768 255.337 440.669 255.845 439.718C256.353 438.767 257.175 438.021 258.17 437.608C259.166 437.196 260.273 437.141 261.304 437.454C262.335 437.767 263.226 438.428 263.825 439.325C264.424 440.222 264.694 441.299 264.589 442.373C264.484 443.446 264.011 444.451 263.25 445.214L263.216 445.248H267.96C268.048 445.248 268.135 445.265 268.216 445.299C268.297 445.333 268.37 445.384 268.431 445.447C268.494 445.508 268.545 445.581 268.579 445.662C268.613 445.743 268.63 445.831 268.629 445.919C268.629 446.007 268.612 446.094 268.578 446.175C268.543 446.256 268.493 446.329 268.431 446.39Z" fill="black"/>
<path d="M413.206 234.778C413.439 227.431 413.325 215.868 410.721 210.817C406.584 202.799 410.442 194.242 418.903 202.998C423.726 207.987 426.092 214.607 427.239 219.374" stroke="black" stroke-width="6" stroke-linecap="round" stroke-linejoin="round"/>
<path d="M484.646 222.988C492.816 222.988 499.439 216.356 499.439 208.175C499.439 199.994 492.816 193.361 484.646 193.361C476.476 193.361 469.853 199.994 469.853 208.175C469.853 216.356 476.476 222.988 484.646 222.988Z" stroke="black" stroke-width="6" stroke-linecap="round" stroke-linejoin="round"/>
<path d="M388.829 479.295C432.067 476.062 440.67 329.158 442.168 324.14C445.169 314.231 435.744 311.907 436.981 304.06C438.218 296.213 437.259 292.696 437.259 292.696C416.962 289.389 397.25 263.831 397.25 263.831C397.25 263.831 395.207 265.325 389.391 270.303C383.574 275.28 377.083 267.632 370.444 275.257C366.063 280.343 318.331 360.585 318.331 360.585" stroke="black" stroke-width="6" stroke-linecap="round" stroke-linejoin="round"/>
<path d="M438.735 303.827C440.142 295.378 440.698 291.701 440.698 291.701C419.085 288.372 396.796 261.081 396.796 261.081C396.796 261.081 394.594 262.706 388.341 268.121C385.821 270.303 383.234 270.286 380.522 270.024C378.609 293.724 421.065 314.822 441.175 315.816C439.892 310.123 437.674 310.242 438.735 303.827Z" fill="black"/>
<path d="M290.232 347.124C290.232 347.124 315.823 325.01 330.678 338.942" stroke="black" stroke-width="6" stroke-linecap="round" stroke-linejoin="round"/>
<path d="M388.375 281.672L431.25 306.634L452.711 255.825C473.416 255.859 473.326 244.597 468.99 244.21C464.655 243.824 443.836 246.75 443.836 246.75C443.836 246.75 444.511 245.233 461.427 242.017C478.342 238.801 475.164 229.363 471.527 229.107C467.89 228.852 441.01 235.596 441.01 235.596L464.105 227.34C472.327 224.727 472.616 216.749 468.321 215.624C465.484 214.879 450.356 219.459 438.383 223.653C438.383 223.653 452.773 216.266 459.599 211.8C466.426 207.334 461.653 201.51 457.664 201.873C453.675 202.237 425.962 220.795 420.685 225.391C415.408 229.988 388.375 281.672 388.375 281.672Z" stroke="black" stroke-width="6" stroke-linecap="round" stroke-linejoin="round"/>
<path d="M360.457 417.434C361.237 417.25 362.03 417.126 362.829 417.065C364.997 416.907 367.173 417.23 369.203 418.01C371.232 418.789 373.065 420.008 374.571 421.577C376.077 423.147 377.219 425.03 377.915 427.092C378.612 429.154 378.846 431.344 378.601 433.507C378.357 435.67 377.639 437.752 376.499 439.606C375.359 441.459 373.826 443.039 372.007 444.231C370.189 445.424 368.13 446.201 365.978 446.506C363.826 446.811 361.633 446.638 359.555 445.998" stroke="black" stroke-width="6" stroke-linecap="round" stroke-linejoin="round"/>
<path d="M299.095 411.787V460.545C299.095 465.065 300.888 469.401 304.081 472.598C307.273 475.795 311.603 477.591 316.118 477.591H344.83C349.345 477.591 353.675 475.795 356.867 472.598C360.06 469.401 361.853 465.065 361.853 460.545V411.787H299.095ZM324.482 447.487C324.657 447.588 324.801 447.734 324.901 447.91C325.001 448.086 325.052 448.285 325.049 448.487C325.049 448.788 324.93 449.078 324.717 449.291C324.504 449.504 324.215 449.624 323.914 449.624C323.716 449.627 323.52 449.578 323.347 449.481L311.998 442.663C311.803 442.571 311.638 442.426 311.523 442.244C311.408 442.062 311.346 441.85 311.346 441.635C311.346 441.419 311.408 441.208 311.523 441.025C311.638 440.843 311.803 440.698 311.998 440.606L323.347 433.788C323.52 433.691 323.716 433.642 323.914 433.645C324.064 433.645 324.212 433.675 324.351 433.732C324.489 433.79 324.615 433.874 324.72 433.981C324.829 434.085 324.915 434.21 324.972 434.349C325.03 434.488 325.058 434.637 325.055 434.788C325.058 434.99 325.007 435.189 324.907 435.365C324.807 435.541 324.662 435.687 324.487 435.788L314.722 441.652L324.482 447.487ZM338.668 430.679L329.532 453.55C329.472 453.666 329.393 453.771 329.299 453.862C329.194 453.97 329.067 454.056 328.928 454.115C328.789 454.173 328.639 454.203 328.488 454.203C328.187 454.203 327.898 454.084 327.685 453.87C327.473 453.657 327.353 453.368 327.353 453.067C327.353 452.901 327.386 452.737 327.45 452.584L336.585 429.714C336.649 429.591 336.731 429.48 336.829 429.384C336.933 429.277 337.058 429.193 337.195 429.136C337.333 429.08 337.481 429.052 337.629 429.054C337.93 429.054 338.219 429.174 338.432 429.387C338.645 429.6 338.764 429.889 338.764 430.191C338.769 430.366 338.738 430.54 338.673 430.702L338.668 430.679ZM354.13 442.635L342.782 449.453C342.608 449.549 342.412 449.598 342.214 449.595C341.913 449.595 341.625 449.475 341.412 449.262C341.199 449.049 341.079 448.76 341.079 448.459C341.077 448.257 341.128 448.057 341.227 447.881C341.327 447.706 341.472 447.56 341.647 447.459L351.407 441.6L341.647 435.736C341.472 435.635 341.327 435.489 341.227 435.314C341.128 435.138 341.077 434.939 341.079 434.736C341.076 434.586 341.104 434.437 341.162 434.298C341.22 434.159 341.305 434.034 341.414 433.93C341.52 433.823 341.645 433.739 341.784 433.681C341.922 433.624 342.07 433.594 342.22 433.594C342.418 433.591 342.614 433.64 342.787 433.736L354.136 440.555C354.331 440.647 354.496 440.792 354.611 440.974C354.727 441.156 354.788 441.368 354.788 441.583C354.788 441.799 354.727 442.01 354.611 442.192C354.496 442.375 354.331 442.52 354.136 442.612L354.13 442.635Z" fill="black"/>
<path d="M1.70233 479.017H930.298" stroke="black" stroke-width="6" stroke-linecap="round" stroke-linejoin="round"/>
<path d="M484.436 236.943L481.292 188.287L418.665 192.35L420.793 225.272C426.359 220.505 453.704 202.22 457.647 201.862C461.591 201.504 466.409 207.328 459.582 211.788C452.756 216.249 438.366 223.641 438.366 223.641C450.339 219.448 465.484 214.868 468.304 215.612C472.605 216.749 472.31 224.704 464.088 227.329L440.993 235.585C440.993 235.585 467.873 228.84 471.51 229.096C475.147 229.352 478.319 238.79 461.41 242.006C444.5 245.222 443.819 246.739 443.819 246.739C443.819 246.739 464.644 243.807 468.973 244.199C473.303 244.591 473.399 255.847 452.694 255.813L452.575 256.092L468.531 255.058C470.763 254.915 472.946 254.333 474.954 253.346C476.962 252.358 478.756 250.984 480.233 249.301C481.71 247.619 482.842 245.662 483.563 243.541C484.284 241.421 484.581 239.178 484.436 236.943Z" fill="black"/>
</svg>
